<svg width="48" height="48" viewBox="0 0 48 48" fill="none" xmlns="http://www.w3.org/2000/svg">
<circle cx="24" cy="24" r="24" fill="#8D8D8D"/>
<g clip-path="url(#clip0_1_7343)">
<path d="M25.3333 19.6667C25.3333 16.72 22.9467 14.3333 20 14.3333C17.0533 14.3333 14.6667 16.72 14.6667 19.6667C14.6667 22.6133 17.0533 25 20 25C22.9467 25 25.3333 22.6133 25.3333 19.6667ZM28 22.3333V25H32V29H34.6667V25H38.6667V22.3333H34.6667V18.3333H32V22.3333H28ZM9.33333 33V35.6667H30.6667V33C30.6667 29.4533 23.56 27.6667 20 27.6667C16.44 27.6667 9.33333 29.4533 9.33333 33Z" fill="#FFF8F8"/>
</g>
<defs>
<clipPath id="clip0_1_7343">
<rect width="32" height="32" fill="white" transform="translate(8 9)"/>
</clipPath>
</defs>
</svg>
