<svg width="72" height="72" viewBox="0 0 72 72" fill="none" xmlns="http://www.w3.org/2000/svg">
<circle cx="36" cy="36" r="36" fill="#383838"/>
<path d="M54.6667 12H17.3333C14.4 12 12 14.4 12 17.3333V36C12 38.9333 14.4 41.3333 17.3333 41.3333H54.6667C57.6 41.3333 60 38.9333 60 36V17.3333C60 14.4 57.6 12 54.6667 12ZM54.6667 28H44C44 32.32 40.32 36 36 36C31.68 36 28 32.32 28 28H17.3333V17.3333H54.6667V28ZM44 46.6667H60V54.6667C60 57.6 57.6 60 54.6667 60H17.3333C14.4 60 12 57.6 12 54.6667V46.6667H28C28 51.0933 31.5733 54.6667 36 54.6667C40.4267 54.6667 44 51.0933 44 46.6667Z" fill="white"/>
</svg>
